<?xml version="1.0" encoding="UTF-8" standalone="no"?>
<svg width="243px" height="243px" viewBox="0 0 243 243" version="1.1" xmlns="http://www.w3.org/2000/svg" xmlns:xlink="http://www.w3.org/1999/xlink" xmlns:sketch="http://www.bohemiancoding.com/sketch/ns">
    <!-- Generator: Sketch 3.4.4 (17249) - http://www.bohemiancoding.com/sketch -->
    <title>Logo</title>
    <desc>Created with Sketch.</desc>
    <defs>
        <path id="path-1" d="M0,0.394 L242.605,0.394 L242.605,243 L0,243"></path>
    </defs>
    <g id="Page-1" stroke="none" stroke-width="1" fill="none" fill-rule="evenodd" sketch:type="MSPage">
        <g id="Logo" sketch:type="MSLayerGroup">
            <g id="Group-3">
                <mask id="mask-2" sketch:name="Clip 2" fill="white">
                    <use xlink:href="#path-1"></use>
                </mask>
                <g id="Clip-2"></g>
                <path d="M207.3647,36.2401 L207.3647,155.6521 C207.3647,177.4001 205.3677,199.2151 197.3337,216.1441 C224.9197,193.9091 242.6057,159.8871 242.6057,121.6971 C242.6057,88.3541 229.1387,58.1671 207.3647,36.2401" id="Fill-1" fill="#00A69C" sketch:type="MSShapeGroup" mask="url(#mask-2)"></path>
            </g>
            <path d="M144.6255,87.0985 C131.0525,71.5235 114.1425,70.4115 108.8025,70.4115 C78.9865,70.4115 59.6285,94.8855 59.6285,122.2535 C59.6285,155.1835 84.9945,172.9845 109.9145,172.9845 C123.7095,172.9845 135.9475,166.9765 144.6255,156.7415 L144.6255,190.5615 C135.7255,195.2345 123.9325,199.2395 107.9125,199.2395 C81.8795,199.2395 66.0825,190.3385 53.6225,178.5465 C36.4895,162.0815 29.8145,143.6135 29.8145,121.8085 C29.8145,94.8855 40.9385,75.5275 53.6225,63.7365 C68.5295,49.7175 86.9975,44.1555 108.1355,44.1555 C118.5925,44.1555 131.0525,45.9355 144.6255,53.2785 L144.6255,87.0985 Z M121.3025,0.3945 C54.3095,0.3945 0.0005,54.7035 0.0005,121.6975 C0.0005,188.6905 54.3095,242.9995 121.3025,242.9995 C139.9695,242.9995 158.1115,226.3755 166.5525,214.1975 C177.6425,198.1975 177.6425,155.6515 177.6425,155.6515 L177.6425,14.3225 C160.7995,5.4655 141.6535,0.3945 121.3025,0.3945 L121.3025,0.3945 Z" id="Fill-4" fill="#00A69C" sketch:type="MSShapeGroup"></path>
        </g>
    </g>
</svg>
